<svg width="30" height="31" viewBox="0 0 30 31" fill="none" xmlns="http://www.w3.org/2000/svg">
<g filter="url(#filter0_d_38073_2876)">
<path d="M13.05 2.53004L7.03002 6.46004C5.10002 7.72004 5.10002 10.54 7.03002 11.8L13.05 15.73C14.13 16.44 15.91 16.44 16.99 15.73L22.98 11.8C24.9 10.54 24.9 7.73004 22.98 6.47004L16.99 2.54004C15.91 1.82004 14.13 1.82004 13.05 2.53004Z" stroke="black" stroke-width="1.5" stroke-linecap="round" stroke-linejoin="round"/>
<path d="M8.63 13.08L8.62 17.77C8.62 19.04 9.6 20.4 10.8 20.8L13.99 21.86C14.54 22.04 15.45 22.04 16.01 21.86L19.2 20.8C20.4 20.4 21.38 19.04 21.38 17.77V13.13" stroke="black" stroke-width="1.5" stroke-linecap="round" stroke-linejoin="round"/>
<path d="M24.4 15V9" stroke="black" stroke-width="1.5" stroke-linecap="round" stroke-linejoin="round"/>
</g>
<defs>
<filter id="filter0_d_38073_2876" x="-1" y="0" width="32" height="32" filterUnits="userSpaceOnUse" color-interpolation-filters="sRGB">
<feFlood flood-opacity="0" result="BackgroundImageFix"/>
<feColorMatrix in="SourceAlpha" type="matrix" values="0 0 0 0 0 0 0 0 0 0 0 0 0 0 0 0 0 0 127 0" result="hardAlpha"/>
<feOffset dy="4"/>
<feGaussianBlur stdDeviation="2"/>
<feComposite in2="hardAlpha" operator="out"/>
<feColorMatrix type="matrix" values="0 0 0 0 0 0 0 0 0 0 0 0 0 0 0 0 0 0 0.25 0"/>
<feBlend mode="normal" in2="BackgroundImageFix" result="effect1_dropShadow_38073_2876"/>
<feBlend mode="normal" in="SourceGraphic" in2="effect1_dropShadow_38073_2876" result="shape"/>
</filter>
</defs>
</svg>
